<?xml version="1.0" standalone="no"?>
<!DOCTYPE svg PUBLIC "-//W3C//DTD SVG 20010904//EN"
 "http://www.w3.org/TR/2001/REC-SVG-20010904/DTD/svg10.dtd">
<svg version="1.0" xmlns="http://www.w3.org/2000/svg"
 width="1280.000000pt" height="720.000000pt" viewBox="0 0 1280.000000 720.000000"
 preserveAspectRatio="xMidYMid meet">

<g transform="translate(0.000000,720.000000) scale(0.100000,-0.100000)"
fill="#000000" stroke="none">
<path d="M6140 7080 c-180 -19 -227 -27 -390 -62 -483 -104 -960 -325 -1365
-632 -656 -497 -1108 -1197 -1296 -2006 -128 -552 -117 -1106 34 -1700 61
-240 216 -608 355 -847 408 -698 1073 -1249 1842 -1526 356 -128 710 -193
1110 -204 635 -17 1291 156 1852 488 439 259 828 626 1114 1049 315 465 507
984 580 1565 22 173 24 588 5 745 -21 174 -51 349 -78 455 -14 55 -29 117 -34
139 -13 52 -86 267 -116 341 -101 250 -220 473 -370 694 -378 556 -940 1009
-1563 1260 -58 23 -114 46 -125 51 -64 28 -318 101 -445 128 -174 37 -204 42
-402 62 -243 25 -470 24 -708 0z m452 -322 c2 -7 2 -36 0 -65 l-4 -52 -154 -3
c-89 -2 -159 1 -165 7 -5 5 -9 35 -9 67 l0 58 164 0 c122 0 165 -3 168 -12z
m325 -13 c67 -8 127 -15 133 -15 9 0 11 -16 6 -62 -4 -35 -9 -64 -11 -66 -5
-6 -302 30 -314 38 -7 4 -9 28 -5 68 l7 62 31 -5 c17 -3 86 -12 153 -20z
m-793 -12 c3 -10 6 -38 8 -63 3 -44 2 -45 -32 -52 -88 -18 -281 -50 -284 -47
-9 13 -25 114 -19 120 5 5 55 17 113 28 184 35 207 36 214 14z m1186 -63 c41
-12 106 -30 144 -41 66 -21 68 -22 62 -50 -3 -15 -12 -44 -20 -63 -14 -34 -16
-35 -48 -25 -65 21 -134 40 -198 57 l-65 17 2 48 c3 87 5 89 123 57z m-1635
-78 c7 -29 10 -54 7 -56 -23 -14 -287 -96 -298 -92 -13 5 -49 104 -41 112 6 7
202 74 257 89 25 7 49 9 53 5 4 -4 14 -30 22 -58z m2053 -63 c143 -65 232
-108 232 -113 0 -17 -57 -106 -68 -106 -7 0 -43 15 -80 33 -37 19 -97 46 -134
62 -38 15 -68 31 -68 35 0 4 6 23 14 41 7 19 16 42 19 52 8 22 28 22 85 -4z
m-2493 -83 c14 -30 25 -57 25 -60 0 -10 -284 -146 -290 -139 -20 22 -60 102
-53 106 101 57 272 145 286 146 4 1 18 -23 32 -53z m3032 -210 c51 -34 93 -64
93 -68 0 -12 -63 -98 -72 -98 -9 0 -213 130 -246 156 l-22 19 30 53 31 53 47
-27 c26 -15 89 -55 139 -88z m-3437 -18 l32 -52 -23 -16 c-13 -8 -62 -43 -109
-78 -118 -86 -125 -90 -151 -66 -12 10 -30 32 -40 48 l-17 29 51 41 c80 63
201 145 214 146 6 0 26 -23 43 -52z m3733 -207 c45 -38 100 -87 122 -110 l39
-41 -44 -45 c-42 -43 -44 -44 -66 -27 -38 29 -209 186 -212 194 -4 8 65 98 74
98 3 0 42 -31 87 -69z m-4105 -69 l41 -48 -118 -111 -117 -111 -48 42 -47 41
118 118 c64 64 121 117 124 117 4 0 25 -22 47 -48z m4513 -351 c32 -40 59 -79
59 -85 0 -7 -21 -27 -47 -46 l-48 -33 -35 43 c-19 24 -66 79 -104 123 l-70 80
49 45 48 46 45 -49 c24 -28 71 -83 103 -124z m-4843 23 c23 -19 42 -40 42 -45
0 -11 -181 -249 -190 -249 -12 0 -100 62 -100 70 0 15 188 260 200 260 3 0 25
-16 48 -36z m2266 -232 c98 -76 106 -87 126 -184 12 -59 55 -118 86 -118 7 0
34 19 58 43 l45 42 -6 61 c-4 49 -2 67 15 100 49 91 109 134 191 134 68 0 105
-25 125 -84 43 -127 -92 -271 -236 -252 -48 7 -51 6 -89 -32 -21 -22 -39 -46
-39 -53 0 -8 65 -79 145 -159 80 -80 145 -152 145 -160 0 -22 -20 -40 -45 -40
-13 0 -69 49 -155 135 -74 74 -142 135 -150 135 -8 0 -74 -59 -145 -131 -72
-72 -138 -135 -147 -140 -27 -15 -58 6 -58 39 0 21 29 56 142 169 133 133 141
143 131 166 -13 28 -86 67 -126 67 -57 0 -76 18 -229 217 -5 6 -5 14 0 17 8 5
163 -144 183 -176 7 -10 11 -10 21 0 10 10 -6 31 -82 107 -52 52 -91 98 -87
102 4 4 50 -35 102 -87 52 -52 97 -91 100 -88 11 11 -12 41 -94 122 -44 44
-77 84 -74 89 3 5 47 -32 97 -82 84 -84 116 -106 116 -81 0 10 -155 162 -171
168 -12 5 -12 35 1 30 5 -1 52 -36 104 -76z m2779 -70 c48 -74 117 -195 117
-205 0 -7 -94 -57 -108 -57 -4 0 -25 30 -46 68 -22 37 -56 93 -78 125 -21 32
-38 64 -38 72 0 15 90 76 102 69 4 -3 27 -35 51 -72z m-5274 -101 c11 -7 7
-20 -22 -67 -19 -33 -54 -96 -77 -141 -23 -46 -44 -83 -46 -83 -5 0 -107 50
-113 56 -4 4 96 194 132 252 l28 43 42 -26 c23 -14 48 -29 56 -34z m5523 -372
c32 -74 57 -143 55 -154 -2 -24 -94 -58 -113 -43 -7 5 -22 37 -35 71 -12 34
-38 95 -56 136 -18 41 -31 76 -29 79 11 10 102 50 111 48 5 -1 35 -63 67 -137z
m-5778 -15 c45 -20 56 -30 50 -43 -3 -9 -28 -73 -54 -144 -26 -70 -49 -130
-53 -133 -3 -3 -31 2 -62 11 -56 16 -56 16 -50 48 12 56 101 287 110 287 2 0
28 -12 59 -26z m5903 -335 c20 -65 63 -244 63 -262 0 -10 -19 -18 -61 -26 -34
-7 -62 -11 -63 -9 -3 4 -67 257 -73 289 -4 24 -1 27 49 41 29 9 57 15 62 14 5
-1 15 -22 23 -47z m-6045 -105 c22 -4 42 -13 45 -20 3 -8 -2 -42 -11 -77 -8
-34 -23 -100 -31 -147 -9 -47 -17 -86 -18 -86 -4 -3 -119 15 -123 19 -8 8 41
255 62 316 2 7 11 10 20 7 9 -3 34 -9 56 -12z m2024 -123 c57 -28 90 -71 105
-136 11 -48 10 -63 -5 -110 -33 -105 -115 -145 -298 -145 -98 0 -127 7 -98 25
14 9 13 350 -1 377 -11 21 -11 21 122 15 106 -4 143 -10 175 -26z m612 13 c84
-35 126 -99 126 -194 0 -134 -82 -210 -227 -210 -152 0 -231 72 -231 210 0 96
35 152 119 191 50 23 161 25 213 3z m438 -6 c-13 -18 -16 -55 -16 -195 l0
-173 59 0 c50 0 65 4 91 26 38 32 46 27 30 -20 l-12 -36 -133 0 c-78 0 -136 4
-140 10 -3 6 -1 10 4 10 15 0 15 354 1 381 -10 18 -7 19 60 19 l71 0 -15 -22z
m703 -2 c21 -19 26 -42 15 -70 -5 -12 -11 -9 -28 17 -43 64 -154 72 -207 15
-39 -41 -52 -89 -47 -173 8 -116 62 -172 160 -163 56 6 103 43 113 89 10 46
25 44 25 -4 0 -32 -6 -49 -22 -64 -39 -35 -64 -43 -140 -43 -94 0 -166 32
-206 93 -23 35 -27 51 -27 117 0 67 3 82 28 119 19 29 45 50 80 67 46 22 63
25 144 22 72 -3 96 -8 112 -22z m501 -11 l0 -36 -22 21 c-17 15 -35 20 -80 20
l-58 0 0 -85 0 -85 47 0 c29 0 53 6 65 17 17 15 18 14 18 -32 0 -46 -1 -47
-18 -32 -12 11 -36 17 -65 17 l-47 0 0 -80 0 -80 59 0 c54 0 63 3 95 33 l35
33 -6 -30 c-13 -67 -11 -66 -159 -66 -126 0 -136 1 -128 18 5 9 9 96 9 192 0
96 -4 183 -9 193 -8 16 2 17 128 17 l136 0 0 -35z m1854 -184 c10 -16 39 -299
33 -315 -5 -12 -21 -16 -66 -16 l-60 0 -5 58 c-4 31 -11 101 -17 155 -6 54 -9
100 -6 103 3 3 27 9 54 14 26 4 51 8 55 9 4 0 9 -3 12 -8z m-6177 -149 c8 -5
9 -49 5 -162 l-7 -155 -62 -3 -63 -3 0 113 c0 62 3 137 6 166 l7 52 51 0 c28
0 56 -4 63 -8z m922 -148 c1 -1 0 -7 -3 -13 -8 -13 -242 -87 -303 -97 -48 -7
-28 33 -158 -324 -37 -102 -73 -198 -81 -215 -7 -16 -31 -75 -52 -130 -54
-137 -90 -215 -98 -215 -15 0 7 140 35 231 31 97 113 317 190 506 22 57 41
107 41 113 0 5 -47 11 -112 12 -113 3 -113 3 -113 28 0 17 8 29 25 37 30 14
228 48 395 67 101 12 220 12 234 0z m1349 -56 c18 -18 14 -74 -7 -116 -23 -44
-113 -132 -194 -191 -32 -23 -55 -46 -52 -52 4 -5 39 -9 80 -9 126 0 95 -32
-45 -46 l-70 -7 -24 -51 c-29 -62 -50 -158 -41 -187 10 -30 40 -22 155 42 139
77 183 97 237 110 26 7 71 23 98 36 36 16 69 23 115 23 43 1 79 7 105 20 78
38 98 20 72 -64 -25 -78 -25 -80 -15 -100 14 -26 66 -17 268 45 91 28 191 55
223 60 71 11 89 20 122 63 54 71 18 84 -112 41 -90 -30 -128 -29 -68 2 53 27
140 53 182 53 65 0 87 -55 47 -115 -21 -30 -17 -45 14 -46 15 0 36 -4 47 -9
25 -10 13 -15 -70 -29 -47 -8 -66 -18 -87 -41 -16 -17 -28 -35 -28 -41 0 -6
11 -8 28 -5 15 3 70 13 122 22 146 25 250 51 301 72 40 18 50 28 72 76 25 54
47 73 47 40 0 -9 -5 -45 -12 -80 -16 -87 -6 -98 77 -90 33 4 76 11 95 15 19 5
91 19 160 30 154 27 200 39 200 52 0 15 51 59 67 59 30 0 71 -40 77 -75 4 -20
12 -38 19 -40 7 -2 81 4 166 13 l154 18 19 43 c25 60 40 44 32 -35 -4 -35 -3
-64 1 -64 4 0 55 50 115 110 98 99 112 110 144 110 47 0 52 -22 31 -135 -26
-142 -15 -149 142 -85 54 23 118 45 142 51 26 6 61 25 87 48 57 50 127 77 160
62 33 -15 39 -36 20 -66 -16 -24 -47 -36 -136 -52 -32 -6 -48 -15 -56 -31 -19
-38 -6 -61 40 -73 62 -18 145 1 294 65 72 31 133 56 136 56 3 0 6 -6 6 -14 0
-39 -218 -157 -326 -175 -125 -22 -222 30 -212 114 2 19 1 35 -3 35 -3 0 -55
-23 -115 -52 -181 -85 -244 -78 -244 28 0 30 5 74 12 99 7 24 8 48 4 52 -4 4
-63 -50 -131 -120 -98 -102 -129 -128 -147 -125 -21 3 -23 8 -22 61 1 31 -2
57 -6 57 -4 0 -33 -9 -64 -20 -32 -11 -108 -25 -170 -31 -104 -12 -113 -14
-149 -46 -41 -36 -86 -44 -107 -18 -7 9 -15 38 -18 65 -2 28 -5 50 -7 50 -1 0
-44 -14 -95 -30 -128 -41 -252 -70 -330 -77 -61 -5 -68 -4 -98 22 -20 16 -32
36 -32 51 0 30 -1 30 -67 -1 -59 -28 -126 -50 -378 -120 -95 -27 -124 -37
-193 -67 -24 -11 -50 -17 -58 -14 -33 13 -13 51 71 137 126 128 112 152 -42
75 -297 -148 -465 -142 -425 16 6 23 9 44 7 46 -2 2 -47 -21 -101 -52 -138
-79 -215 -86 -222 -22 -2 14 -7 26 -11 26 -4 0 -56 -32 -117 -71 -211 -138
-272 -161 -315 -118 -20 20 -21 29 -17 115 3 52 2 94 -2 94 -4 0 -61 -26 -126
-57 -142 -68 -211 -80 -238 -42 -19 27 -20 77 -5 149 6 27 9 56 6 63 -3 7 -57
-42 -128 -115 -124 -127 -158 -150 -173 -112 -4 9 -3 33 0 52 l7 36 -34 -23
c-63 -42 -183 -93 -254 -108 -205 -43 -293 112 -135 237 56 44 117 64 153 49
22 -9 27 -17 25 -37 -4 -36 -44 -61 -118 -73 -71 -11 -93 -28 -88 -69 2 -18
13 -28 42 -39 56 -21 145 -3 293 61 119 51 123 54 136 92 7 22 19 42 27 44 10
4 12 -11 6 -74 l-7 -79 108 109 c112 113 154 141 185 125 22 -12 23 -55 4
-154 -15 -77 -8 -105 25 -105 18 0 146 47 189 69 8 4 39 14 68 21 41 9 56 18
67 41 20 37 19 38 -11 49 -37 14 -28 44 14 48 29 3 39 13 89 90 102 159 227
292 273 292 9 0 21 -5 28 -12z m3940 -188 c2 -41 0 -117 -3 -168 l-7 -93 -61
3 -62 3 4 160 c2 88 5 164 8 168 3 4 30 7 61 5 l57 -3 3 -75z m-2334 -43 c9
-14 6 -26 -10 -55 -41 -71 -87 -26 -49 48 17 34 41 37 59 7z m-3880 -29 c2 -7
9 -62 15 -123 7 -60 14 -128 17 -151 l6 -41 -62 -7 c-34 -4 -64 -5 -67 -2 -6
6 -33 231 -33 283 0 40 2 42 33 46 66 8 88 7 91 -5z m6175 -334 c5 -5 -1 -60
-15 -129 -13 -66 -27 -135 -30 -153 -8 -42 -17 -45 -79 -29 -48 13 -50 15 -49
48 1 28 37 219 50 268 3 10 18 12 60 9 30 -3 59 -9 63 -14z m-6092 -214 c12
-52 29 -119 39 -148 9 -29 13 -56 10 -60 -11 -11 -116 -40 -120 -33 -18 33
-79 284 -74 308 4 19 43 32 92 30 29 -2 31 -4 53 -97z m5962 -236 c19 -8 31
-19 29 -26 -3 -7 -18 -51 -33 -98 -15 -47 -31 -89 -35 -95 -3 -5 -15 -32 -24
-58 -14 -37 -22 -47 -35 -42 -61 22 -101 41 -101 48 0 4 15 47 34 95 18 48 37
98 41 111 4 13 14 39 21 58 16 36 28 37 103 7z m-4411 -22 c-13 -16 -25 -25
-27 -20 -4 11 28 48 41 48 5 0 -1 -13 -14 -28z m72 18 c0 -5 -2 -10 -4 -10 -3
0 -8 5 -11 10 -3 6 -1 10 4 10 6 0 11 -4 11 -10z m303 -11 c-4 -15 -8 -17 -14
-8 -8 14 -3 29 11 29 4 0 6 -9 3 -21z m235 10 c-2 -6 -8 -10 -13 -10 -5 0 -11
4 -13 10 -2 6 4 11 13 11 9 0 15 -5 13 -11z m172 1 c0 -5 -4 -10 -10 -10 -5 0
-10 5 -10 10 0 6 5 10 10 10 6 0 10 -4 10 -10z m80 -22 c0 -5 -7 -3 -15 6 -8
8 -15 18 -15 22 0 3 7 1 15 -6 8 -7 15 -17 15 -22z m153 15 c-16 -10 -23 -26
-23 -47 0 -40 15 -56 55 -57 l30 -2 -28 -4 c-39 -6 -67 21 -67 65 0 33 21 62
45 61 6 0 0 -7 -12 -16z m81 -5 c20 -29 20 -59 0 -84 -15 -19 -16 -19 -9 1 18
50 17 62 -10 84 -19 14 -23 21 -12 21 9 0 23 -10 31 -22z m197 -7 c22 26 25
13 4 -15 -13 -17 -12 -22 5 -46 27 -38 25 -47 -3 -14 l-23 27 -29 -29 -28 -29
22 37 c21 35 21 39 7 60 -24 33 -19 45 5 14 l21 -27 19 22z m317 11 c-50 -30
-29 -102 30 -102 25 0 31 5 35 25 4 23 4 23 3 -2 -1 -24 -6 -28 -34 -31 -43
-4 -72 21 -72 61 0 34 25 67 49 67 10 0 6 -7 -11 -18z m62 8 c0 -5 -2 -10 -4
-10 -3 0 -8 5 -11 10 -3 6 -1 10 4 10 6 0 11 -4 11 -10z m166 -11 c-14 -11
-26 -30 -26 -41 0 -54 74 -79 104 -36 22 31 20 45 -10 73 -28 26 -22 34 8 12
47 -36 17 -117 -43 -117 -35 0 -69 31 -69 65 0 23 34 65 53 65 5 0 -2 -9 -17
-21z m476 9 c-18 -18 -15 -56 7 -63 19 -6 52 3 61 16 3 4 5 -9 5 -31 0 -34 -1
-36 -13 -19 -19 27 -60 25 -72 -3 -7 -18 -9 -9 -9 38 -1 61 3 74 23 74 6 0 5
-5 -2 -12z m67 3 c7 -5 12 -13 10 -18 -2 -5 -12 -1 -21 9 -19 19 -13 24 11 9z
m162 -35 c-5 -6 -11 -29 -14 -51 -2 -25 -4 -14 -5 30 -1 63 0 68 13 51 9 -12
11 -23 6 -30z m269 34 c0 -5 -4 -10 -10 -10 -5 0 -10 5 -10 10 0 6 5 10 10 10
6 0 10 -4 10 -10z m230 -56 c0 -41 -4 -63 -10 -59 -5 3 -10 33 -10 66 0 33 4
59 10 59 6 0 10 -29 10 -66z m-947 -48 c29 -18 51 5 58 60 l6 49 1 -50 c2 -57
-10 -75 -48 -75 -38 0 -50 18 -48 75 l1 50 6 -49 c4 -31 12 -53 24 -60z m567
100 c0 -16 -14 -36 -26 -36 -8 0 -14 -5 -14 -12 0 -6 -2 -9 -5 -6 -10 9 17 58
32 58 7 0 13 -2 13 -4z m-2063 -88 c-2 -13 -4 -3 -4 22 0 25 2 35 4 23 2 -13
2 -33 0 -45z m223 45 c26 6 31 3 36 -18 11 -42 -1 -55 -51 -55 -36 0 -45 4
-45 17 0 13 3 14 12 5 7 -7 27 -12 45 -12 29 0 33 3 33 26 0 26 -2 26 -45 22
-40 -5 -45 -3 -45 14 0 17 3 18 15 8 9 -7 27 -10 45 -7z m2019 -3 c31 0 25 -5
-16 -13 -29 -6 -33 -4 -33 15 0 17 3 19 12 10 7 -7 23 -12 37 -12z m-2429 -8
c-14 -2 -29 -8 -34 -13 -15 -14 -25 -11 -21 9 4 21 -2 19 43 13 30 -4 32 -6
12 -9z m2181 -17 c10 7 13 -8 3 -18 -7 -7 -44 35 -44 49 0 5 7 -2 16 -14 8
-12 20 -20 25 -17z m-2554 -35 c22 0 33 5 36 18 3 13 4 12 3 -3 -2 -46 -107
-22 -106 24 0 10 7 6 18 -11 12 -21 25 -28 49 -28z m-1476 -28 c6 -20 31 -81
55 -136 24 -54 44 -104 44 -110 0 -13 -81 -56 -105 -56 -7 0 -17 10 -21 22 -3
12 -21 53 -39 92 -18 39 -42 97 -54 129 l-21 58 37 15 c21 8 47 19 58 23 27
11 31 7 46 -37z m4318 22 c2 -2 -17 -4 -42 -4 -26 0 -47 4 -47 9 0 8 79 3 89
-5z m1362 -317 c24 -15 24 -27 -3 -79 -37 -73 -129 -228 -135 -228 -12 0 -103
62 -103 71 0 5 18 38 40 74 22 35 55 96 75 134 l35 70 36 -15 c20 -8 45 -20
55 -27z m-5480 -134 c18 -32 55 -92 81 -133 26 -41 48 -78 48 -82 0 -10 -82
-68 -97 -68 -17 0 -173 245 -173 273 0 10 80 62 102 66 3 0 21 -25 39 -56z
m1284 -43 c10 -9 15 -31 15 -75 0 -57 -3 -66 -26 -84 -31 -24 -137 -30 -151
-8 -4 6 -6 41 -5 77 2 56 6 68 29 89 22 19 35 22 75 19 26 -3 54 -11 63 -18z
m1185 -100 c0 -5 -4 -10 -10 -10 -5 0 -10 5 -10 10 0 6 5 10 10 10 6 0 10 -4
10 -10z m-435 -20 c3 -5 1 -10 -4 -10 -6 0 -11 5 -11 10 0 6 2 10 4 10 3 0 8
-4 11 -10z m482 -22 c-3 -8 -6 -5 -6 6 -1 11 2 17 5 13 3 -3 4 -12 1 -19z
m2697 -65 c23 -16 44 -32 48 -37 10 -15 -176 -266 -197 -265 -5 0 -30 17 -54
38 l-43 38 97 127 c53 69 99 126 103 126 3 0 24 -12 46 -27z m-4957 -130 c20
-27 63 -78 95 -114 32 -37 58 -71 58 -76 0 -5 -20 -28 -43 -51 l-44 -43 -58
66 c-32 37 -80 94 -107 128 l-48 62 42 37 c24 21 48 38 55 38 6 0 29 -21 50
-47z m4678 -244 l40 -40 -117 -115 c-64 -63 -120 -114 -125 -114 -4 1 -25 22
-46 48 l-37 47 109 107 c61 60 116 108 123 108 8 0 32 -18 53 -41z m-4393 -71
c25 -24 186 -166 202 -179 8 -7 -61 -108 -74 -108 -7 -1 -116 93 -188 162
l-63 60 43 44 c23 23 45 43 49 43 3 0 17 -10 31 -22z m4078 -285 c0 -23 -251
-200 -270 -188 -13 8 -60 81 -60 93 0 5 28 29 63 53 34 23 91 65 127 92 l65
48 37 -43 c21 -24 38 -48 38 -55z m-3683 -35 c43 -29 102 -67 131 -85 28 -18
52 -38 52 -46 0 -7 -13 -34 -30 -60 l-30 -48 -57 37 c-133 83 -212 140 -213
152 0 10 59 100 67 102 1 0 37 -24 80 -52z m3268 -182 c16 -30 27 -57 24 -60
-16 -16 -283 -145 -290 -140 -13 8 -51 94 -47 106 4 11 254 145 273 147 6 1
24 -23 40 -53z m-2795 -82 c58 -26 109 -51 114 -55 10 -9 -23 -119 -36 -119
-31 0 -298 126 -298 141 0 6 12 33 26 60 l27 48 31 -14 c17 -7 78 -35 136 -61z
m2377 -119 c15 -40 17 -57 9 -64 -9 -7 -288 -101 -301 -101 -5 0 -35 93 -35
110 0 12 35 28 138 62 75 26 144 47 153 47 11 1 23 -18 36 -54z m-2054 -5 c32
-11 95 -29 139 -40 45 -11 85 -23 90 -28 7 -7 -6 -110 -16 -120 -7 -7 -105 17
-216 51 -116 37 -113 33 -84 115 9 23 19 42 23 42 4 0 33 -9 64 -20z m1609
-130 c8 -34 12 -62 9 -64 -8 -5 -213 -43 -273 -51 -25 -3 -49 -2 -52 3 -3 5
-8 34 -12 65 l-7 56 34 5 c19 3 84 14 144 25 61 10 117 19 126 20 12 1 20 -16
31 -59z m-999 5 l77 -7 0 -57 c0 -31 -4 -61 -10 -67 -9 -9 -281 18 -318 31
-10 4 -11 17 -6 52 11 81 12 82 101 68 43 -7 113 -16 156 -20z m537 -79 l0
-64 -127 -3 c-71 -2 -145 -2 -165 0 l-38 3 0 57 c0 32 3 61 7 64 3 4 78 7 165
7 l158 0 0 -64z"/>
<path d="M5332 4084 l3 -179 57 -3 c50 -3 60 0 90 27 77 68 77 236 -1 306 -16
13 -41 20 -87 23 l-64 4 2 -178z"/>
<path d="M5984 4256 c-45 -20 -75 -76 -81 -149 -6 -77 9 -138 47 -180 25 -29
34 -32 83 -32 45 0 60 5 81 24 85 80 67 297 -28 336 -43 18 -62 18 -102 1z"/>
<path d="M5603 3594 c-32 -36 -67 -79 -77 -96 -19 -30 -19 -31 0 -20 36 20
154 153 154 173 0 21 -23 4 -77 -57z"/>
<path d="M4289 3260 c-21 -17 -22 -19 -6 -20 23 0 57 18 57 30 0 16 -26 11
-51 -10z"/>
<path d="M9054 3270 c-26 -10 -40 -30 -22 -30 28 0 57 13 62 26 6 16 -8 17
-40 4z"/>
<path d="M7840 3230 c13 -24 45 -28 36 -4 -3 9 -6 18 -6 20 0 2 -9 4 -20 4
-18 0 -19 -3 -10 -20z"/>
<path d="M5895 3214 c-39 -14 -85 -50 -85 -65 0 -10 32 1 106 38 81 39 66 59
-21 27z"/>
<path d="M7787 3193 c-15 -26 -17 -71 -2 -83 13 -11 19 -10 35 5 11 10 20 23
20 30 0 16 -47 59 -53 48z"/>
<path d="M5007 2043 c-4 -3 -7 -20 -7 -37 l1 -31 17 28 c11 19 25 27 44 27 15
0 30 5 33 10 7 11 -77 14 -88 3z"/>
<path d="M5110 1992 c0 -15 -5 -33 -12 -40 -15 -15 -4 -26 17 -19 17 7 22 87
5 87 -5 0 -10 -13 -10 -28z"/>
<path d="M5046 1995 c-3 -9 1 -18 10 -22 19 -7 39 11 30 26 -10 16 -33 13 -40
-4z"/>
</g>
</svg>
